<?xml version="1.0" encoding="iso-8859-1"?>
<!-- Generator: Adobe Illustrator 19.0.0, SVG Export Plug-In . SVG Version: 6.00 Build 0)  -->
<svg xmlns="http://www.w3.org/2000/svg" xmlns:xlink="http://www.w3.org/1999/xlink" version="1.1" id="Capa_1" x="0px" y="0px" viewBox="0 0 511.999 511.999" style="enable-background:new 0 0 511.999 511.999;" xml:space="preserve" width="512px" height="512px">
<g>
	<g>
		<path d="M316.107,203.898c-23.701-23.701-52.06-9.695-60.08-3.209c-8.02-6.486-36.379-20.492-60.08,3.209    c-17.776,17.776-17.526,46.119,0,63.645l60.08,60.08l60.08-60.08C333.634,250.017,333.884,221.674,316.107,203.898z     M294.893,246.327l-38.866,38.866l-38.866-38.866c-5.524-5.524-5.774-15.44,0-21.215c5.476-5.476,15.19-6.025,21.215,0    l17.65,17.65l17.65-17.65c6.024-6.025,15.738-5.475,21.215,0C300.668,230.888,300.418,240.803,294.893,246.327z" fill="#2c98f0"/>
	</g>
</g>
<g>
	<g>
		<path d="M490.26,402.191c27.565-97.005,27.565-195.376,0-292.382c-3.334-11.731-0.047-24.378,8.579-33.004    c17.547-17.546,17.547-46.098,0-63.645c-17.546-17.546-46.099-17.546-63.645,0.001c-8.627,8.626-21.271,11.912-33.004,8.58    c-97.004-27.565-195.376-27.565-292.381,0c-11.731,3.332-24.378,0.045-33.004-8.581c-17.547-17.546-46.098-17.547-63.644,0    c-17.546,17.547-17.546,46.099,0,63.645c8.626,8.626,11.913,21.273,8.58,33.004c-27.565,97.005-27.565,195.376,0,292.381    c3.333,11.731,0.046,24.378-8.58,33.004c-17.547,17.547-17.547,46.099,0,63.645c17.546,17.546,46.098,17.546,63.644,0    c8.627-8.625,21.274-11.912,33.004-8.58c97.004,27.565,195.375,27.565,292.382,0c11.727-3.335,24.378-0.046,33.004,8.58    c19.033,19.033,48.049,15.594,63.644,0.001c19.398-19.398,15.439-48.206,0-63.645C490.213,426.569,486.925,413.922,490.26,402.191    z M461.399,118.01c26.018,91.563,26.018,184.416,0,275.98c-6.306,22.188-0.09,46.106,16.224,62.42    c5.849,5.849,5.848,15.366,0,21.215c-6.314,6.313-15.693,5.521-21.215,0c-12.101-12.101-28.385-18.646-45.046-18.646    c-5.799,0-11.646,0.792-17.374,2.421c-91.563,26.019-184.416,26.019-275.98,0c-22.191-6.304-46.107-0.089-62.42,16.224    c-6.376,6.377-15.88,5.334-21.215,0c-5.459-5.458-6.167-15.047,0-21.215c16.313-16.313,22.529-40.231,16.224-62.42    c-26.018-91.563-26.018-184.416,0-275.98c6.305-22.189,0.088-46.107-16.224-62.419c-5.849-5.849-5.849-15.366,0-21.216    c5.849-5.847,15.365-5.849,21.215,0c16.313,16.313,40.23,22.531,62.42,16.224c91.563-26.018,184.417-26.018,275.98,0    c22.192,6.306,46.106,0.089,62.42-16.225c6.313-6.313,15.902-5.312,21.215,0c5.849,5.849,5.849,15.366,0,21.216    C461.309,71.904,455.093,95.822,461.399,118.01z" fill="#2c98f0"/>
	</g>
</g>
<g>
</g>
<g>
</g>
<g>
</g>
<g>
</g>
<g>
</g>
<g>
</g>
<g>
</g>
<g>
</g>
<g>
</g>
<g>
</g>
<g>
</g>
<g>
</g>
<g>
</g>
<g>
</g>
<g>
</g>
</svg>
